{
.appVersion = "895";
copyright = "Copyright 2011 Google Inc. All Rights Reserved.";
customParameters = (
{
name = description;
value = "Data unhinted. Designed by Monotype design team.";
},
{
name = license;
value = "This Font Software is licensed under the SIL Open Font License, Version 1.1. This Font Software is distributed on an \"AS IS\" BASIS, WITHOUT WARRANTIES OR CONDITIONS OF ANY KIND, either express or implied. See the SIL Open Font License for the specific language, permissions and limitations governing your use of this Font Software.";
},
{
name = licenseURL;
value = "http://scripts.sil.org/OFL";
},
{
name = vendorID;
value = GOOG;
},
{
name = panose;
value = (
2,
11,
5,
2,
4,
5,
4,
2,
2,
4
);
},
{
name = unicodeRanges;
value = (
57,
105
);
},
{
name = codePageRanges;
value = (
1252
);
}
);
date = "2012-09-18 09:04:31 +0000";
designer = "Monotype Design Team";
designerURL = "http://www.monotype.com/studio";
familyName = "Noto Sans Shavian";
fontMaster = (
{
ascender = 2189;
capHeight = 1434;
customParameters = (
{
name = typoAscender;
value = 2189;
},
{
name = typoDescender;
value = -600;
},
{
name = typoLineGap;
value = 0;
},
{
name = winAscent;
value = 2189;
},
{
name = winDescent;
value = 600;
},
{
name = hheaAscender;
value = 2189;
},
{
name = hheaDescender;
value = -600;
},
{
name = underlinePosition;
value = -205;
},
{
name = underlineThickness;
value = 102;
}
);
descender = -600;
id = "C9A84539-05D9-48E4-8BC0-D0A9C8E737A2";
weightValue = 400;
widthValue = 5;
xHeight = 1024;
}
);
glyphs = (
{
glyphname = .notdef;
lastChange = "2016-11-10 14:47:48 +0000";
layers = (
{
layerId = "C9A84539-05D9-48E4-8BC0-D0A9C8E737A2";
paths = (
{
closed = 1;
nodes = (
"922 0 LINE",
"922 1462 LINE",
"102 1462 LINE",
"102 0 LINE"
);
},
{
closed = 1;
nodes = (
"201 1364 LINE",
"823 1364 LINE",
"823 98 LINE",
"201 98 LINE"
);
}
);
width = 1024;
}
);
note = .notdef;
},
{
glyphname = g4;
lastChange = "2016-11-10 14:47:48 +0000";
layers = (
{
layerId = "C9A84539-05D9-48E4-8BC0-D0A9C8E737A2";
paths = (
{
closed = 1;
nodes = (
"555 0 LINE",
"555 957 LINE SMOOTH",
"555 1368 OFFCURVE",
"371 1580 OFFCURVE",
"20 1580 CURVE",
"20 1410 LINE",
"247 1410 OFFCURVE",
"371 1250 OFFCURVE",
"371 957 CURVE SMOOTH",
"371 0 LINE"
);
}
);
width = 735;
}
);
note = g4;
},
{
glyphname = g5;
lastChange = "2016-11-10 14:47:48 +0000";
layers = (
{
layerId = "C9A84539-05D9-48E4-8BC0-D0A9C8E737A2";
paths = (
{
closed = 1;
nodes = (
"600 0 LINE",
"600 1580 LINE",
"436 1580 LINE",
"352 1432 OFFCURVE",
"171 1296 OFFCURVE",
"20 1253 CURVE",
"20 1083 LINE",
"175 1127 OFFCURVE",
"349 1226 OFFCURVE",
"416 1305 CURVE",
"416 0 LINE"
);
}
);
width = 780;
}
);
note = g5;
},
{
glyphname = g6;
lastChange = "2016-11-10 14:47:48 +0000";
layers = (
{
layerId = "C9A84539-05D9-48E4-8BC0-D0A9C8E737A2";
paths = (
{
closed = 1;
nodes = (
"780 150 LINE",
"468 159 OFFCURVE",
"294 294 OFFCURVE",
"294 531 CURVE SMOOTH",
"294 674 OFFCURVE",
"341 763 OFFCURVE",
"399 816 CURVE SMOOTH",
"457 868 OFFCURVE",
"525 885 OFFCURVE",
"568 885 CURVE SMOOTH",
"621 885 OFFCURVE",
"667 872 OFFCURVE",
"707 845 CURVE",
"801 845 LINE",
"801 1580 LINE",
"617 1580 LINE",
"617 1042 LINE",
"591 1049 OFFCURVE",
"570 1053 OFFCURVE",
"554 1053 CURVE SMOOTH",
"528 1053 LINE SMOOTH",
"456 1053 OFFCURVE",
"387 1030 OFFCURVE",
"320 985 CURVE SMOOTH",
"186 894 OFFCURVE",
"100 729 OFFCURVE",
"100 532 CURVE SMOOTH",
"100 185 OFFCURVE",
"351 -20 OFFCURVE",
"780 -20 CURVE"
);
}
);
width = 961;
}
);
note = g6;
},
{
glyphname = g7;
lastChange = "2016-11-10 14:47:48 +0000";
layers = (
{
layerId = "C9A84539-05D9-48E4-8BC0-D0A9C8E737A2";
paths = (
{
closed = 1;
nodes = (
"372 0 OFFCURVE",
"555 212 OFFCURVE",
"555 623 CURVE SMOOTH",
"555 1580 LINE",
"371 1580 LINE",
"371 623 LINE SMOOTH",
"371 330 OFFCURVE",
"247 170 OFFCURVE",
"20 170 CURVE",
"20 0 LINE"
);
}
);
width = 735;
}
);
note = g7;
},
{
glyphname = g8;
lastChange = "2016-11-10 14:47:48 +0000";
layers = (
{
layerId = "C9A84539-05D9-48E4-8BC0-D0A9C8E737A2";
paths = (
{
closed = 1;
nodes = (
"798 -20 OFFCURVE",
"985 208 OFFCURVE",
"985 567 CURVE SMOOTH",
"985 1006 OFFCURVE",
"785 1404 OFFCURVE",
"454 1600 CURVE",
"355 1459 LINE",
"644 1260 OFFCURVE",
"792 947 OFFCURVE",
"792 548 CURVE SMOOTH",
"792 305 OFFCURVE",
"682 150 OFFCURVE",
"505 150 CURVE SMOOTH",
"362 150 OFFCURVE",
"286 253 OFFCURVE",
"286 438 CURVE SMOOTH",
"286 617 OFFCURVE",
"447 794 OFFCURVE",
"664 873 CURVE",
"596 1035 LINE",
"492 995 OFFCURVE",
"403 943 OFFCURVE",
"329 879 CURVE SMOOTH",
"181 751 OFFCURVE",
"100 589 OFFCURVE",
"100 436 CURVE SMOOTH",
"100 161 OFFCURVE",
"257 -20 OFFCURVE",
"506 -20 CURVE SMOOTH"
);
}
);
width = 1115;
}
);
note = g8;
},
{
glyphname = g9;
lastChange = "2016-11-10 14:47:48 +0000";
layers = (
{
layerId = "C9A84539-05D9-48E4-8BC0-D0A9C8E737A2";
paths = (
{
closed = 1;
nodes = (
"559 -20 OFFCURVE",
"718 151 OFFCURVE",
"718 443 CURVE SMOOTH",
"718 616 OFFCURVE",
"642 783 OFFCURVE",
"502 948 CURVE SMOOTH",
"420 1045 OFFCURVE",
"364 1120 OFFCURVE",
"333 1174 CURVE SMOOTH",
"302 1228 OFFCURVE",
"286 1280 OFFCURVE",
"286 1329 CURVE SMOOTH",
"286 1385 OFFCURVE",
"319 1430 OFFCURVE",
"410 1430 CURVE SMOOTH",
"481 1430 OFFCURVE",
"541 1421 OFFCURVE",
"590 1404 CURVE",
"630 1560 LINE",
"553 1591 OFFCURVE",
"494 1600 OFFCURVE",
"397 1600 CURVE SMOOTH",
"217 1600 OFFCURVE",
"100 1497 OFFCURVE",
"100 1329 CURVE SMOOTH",
"100 1200 OFFCURVE",
"165 1077 OFFCURVE",
"316 897 CURVE SMOOTH",
"465 720 OFFCURVE",
"532 583 OFFCURVE",
"532 443 CURVE SMOOTH",
"532 248 OFFCURVE",
"464 150 OFFCURVE",
"316 150 CURVE SMOOTH",
"255 150 OFFCURVE",
"206 157 OFFCURVE",
"167 172 CURVE",
"143 -1 LINE",
"192 -14 OFFCURVE",
"245 -20 OFFCURVE",
"300 -20 CURVE SMOOTH"
);
}
);
width = 818;
}
);
note = g9;
},
{
glyphname = g10;
lastChange = "2016-11-10 14:47:48 +0000";
layers = (
{
layerId = "C9A84539-05D9-48E4-8BC0-D0A9C8E737A2";
paths = (
{
closed = 1;
nodes = (
"656 -20 OFFCURVE",
"772 -4 OFFCURVE",
"877 28 CURVE",
"877 203 LINE",
"793 172 OFFCURVE",
"660 150 OFFCURVE",
"553 150 CURVE SMOOTH",
"473 150 OFFCURVE",
"407 153 OFFCURVE",
"360 189 CURVE SMOOTH",
"312 225 OFFCURVE",
"286 295 OFFCURVE",
"286 428 CURVE SMOOTH",
"286 788 OFFCURVE",
"422 1183 OFFCURVE",
"661 1512 CURVE",
"522 1600 LINE",
"266 1280 OFFCURVE",
"100 809 OFFCURVE",
"100 426 CURVE SMOOTH",
"100 320 OFFCURVE",
"115 235 OFFCURVE",
"145 170 CURVE SMOOTH",
"205 40 OFFCURVE",
"316 -20 OFFCURVE",
"527 -20 CURVE SMOOTH"
);
}
);
width = 907;
}
);
note = g10;
},
{
glyphname = g11;
lastChange = "2016-11-10 14:47:48 +0000";
layers = (
{
layerId = "C9A84539-05D9-48E4-8BC0-D0A9C8E737A2";
paths = (
{
closed = 1;
nodes = (
"732 -20 OFFCURVE",
"848 -4 OFFCURVE",
"953 28 CURVE",
"953 203 LINE",
"869 172 OFFCURVE",
"736 150 OFFCURVE",
"629 150 CURVE SMOOTH",
"549 150 OFFCURVE",
"483 153 OFFCURVE",
"436 189 CURVE SMOOTH",
"388 225 OFFCURVE",
"362 295 OFFCURVE",
"362 428 CURVE SMOOTH",
"362 788 OFFCURVE",
"498 1183 OFFCURVE",
"737 1512 CURVE",
"598 1600 LINE",
"532 1518 OFFCURVE",
"470 1423 OFFCURVE",
"413 1316 CURVE",
"333 1249 OFFCURVE",
"228 1216 OFFCURVE",
"98 1216 CURVE",
"30 1219 LINE",
"30 1049 LINE",
"105 1046 LINE",
"174 1046 OFFCURVE",
"239 1054 OFFCURVE",
"302 1069 CURVE",
"218 843 OFFCURVE",
"176 629 OFFCURVE",
"176 426 CURVE SMOOTH",
"176 320 OFFCURVE",
"191 235 OFFCURVE",
"221 170 CURVE SMOOTH",
"281 40 OFFCURVE",
"392 -20 OFFCURVE",
"603 -20 CURVE SMOOTH"
);
}
);
width = 983;
}
);
note = g11;
},
{
glyphname = g12;
lastChange = "2016-11-10 14:47:48 +0000";
layers = (
{
layerId = "C9A84539-05D9-48E4-8BC0-D0A9C8E737A2";
paths = (
{
closed = 1;
nodes = (
"672 33 LINE",
"191 1600 LINE",
"20 1547 LINE",
"501 -20 LINE"
);
}
);
width = 692;
}
);
note = g12;
},
{
glyphname = g13;
lastChange = "2016-11-10 14:47:48 +0000";
layers = (
{
layerId = "C9A84539-05D9-48E4-8BC0-D0A9C8E737A2";
paths = (
{
closed = 1;
nodes = (
"230 56 OFFCURVE",
"328 147 OFFCURVE",
"411 252 CURVE",
"496 145 OFFCURVE",
"593 55 OFFCURVE",
"704 -20 CURVE",
"793 121 LINE",
"684 202 OFFCURVE",
"592 297 OFFCURVE",
"516 404 CURVE",
"639 615 OFFCURVE",
"701 842 OFFCURVE",
"701 1087 CURVE SMOOTH",
"701 1415 OFFCURVE",
"596 1600 OFFCURVE",
"411 1600 CURVE SMOOTH",
"226 1600 OFFCURVE",
"122 1424 OFFCURVE",
"122 1087 CURVE SMOOTH",
"122 842 OFFCURVE",
"184 615 OFFCURVE",
"307 404 CURVE",
"233 299 OFFCURVE",
"141 204 OFFCURVE",
"30 121 CURVE",
"119 -20 LINE"
);
},
{
closed = 1;
nodes = (
"342 738 OFFCURVE",
"308 904 OFFCURVE",
"308 1085 CURVE SMOOTH",
"308 1200 OFFCURVE",
"317 1286 OFFCURVE",
"335 1343 CURVE SMOOTH",
"353 1400 OFFCURVE",
"378 1429 OFFCURVE",
"411 1429 CURVE SMOOTH",
"444 1429 OFFCURVE",
"469 1400 OFFCURVE",
"488 1343 CURVE SMOOTH",
"506 1285 OFFCURVE",
"515 1199 OFFCURVE",
"515 1085 CURVE SMOOTH",
"515 906 OFFCURVE",
"480 740 OFFCURVE",
"411 587 CURVE"
);
}
);
width = 823;
}
);
note = g13;
},
{
glyphname = g14;
lastChange = "2016-11-10 14:47:48 +0000";
layers = (
{
layerId = "C9A84539-05D9-48E4-8BC0-D0A9C8E737A2";
paths = (
{
closed = 1;
nodes = (
"715 -312 LINE",
"488 -312 OFFCURVE",
"364 -152 OFFCURVE",
"364 141 CURVE SMOOTH",
"364 1098 LINE",
"180 1098 LINE",
"180 141 LINE SMOOTH",
"180 -270 OFFCURVE",
"364 -482 OFFCURVE",
"715 -482 CURVE"
);
}
);
width = 735;
}
);
note = g14;
},
{
glyphname = g15;
lastChange = "2016-11-10 14:47:48 +0000";
layers = (
{
layerId = "C9A84539-05D9-48E4-8BC0-D0A9C8E737A2";
paths = (
{
closed = 1;
nodes = (
"344 -482 LINE",
"423 -341 OFFCURVE",
"597 -204 OFFCURVE",
"760 -155 CURVE",
"760 15 LINE",
"597 -32 OFFCURVE",
"427 -134 OFFCURVE",
"364 -207 CURVE",
"364 1098 LINE",
"180 1098 LINE",
"180 -482 LINE"
);
}
);
width = 780;
}
);
note = g15;
},
{
glyphname = g16;
lastChange = "2016-11-10 14:47:48 +0000";
layers = (
{
layerId = "C9A84539-05D9-48E4-8BC0-D0A9C8E737A2";
paths = (
{
closed = 1;
nodes = (
"344 -482 LINE",
"344 56 LINE",
"370 49 OFFCURVE",
"391 45 OFFCURVE",
"408 45 CURVE SMOOTH",
"433 45 LINE SMOOTH",
"506 45 OFFCURVE",
"577 69 OFFCURVE",
"646 117 CURVE SMOOTH",
"783 213 OFFCURVE",
"861 375 OFFCURVE",
"861 566 CURVE SMOOTH",
"861 913 OFFCURVE",
"610 1118 OFFCURVE",
"181 1118 CURVE",
"181 948 LINE",
"493 939 OFFCURVE",
"667 804 OFFCURVE",
"667 567 CURVE SMOOTH",
"667 424 OFFCURVE",
"621 335 OFFCURVE",
"563 283 CURVE SMOOTH",
"505 230 OFFCURVE",
"436 213 OFFCURVE",
"393 213 CURVE SMOOTH",
"340 213 OFFCURVE",
"294 226 OFFCURVE",
"254 253 CURVE",
"160 253 LINE",
"160 -482 LINE"
);
}
);
width = 961;
}
);
note = g16;
},
{
glyphname = g17;
lastChange = "2016-11-10 14:47:48 +0000";
layers = (
{
layerId = "C9A84539-05D9-48E4-8BC0-D0A9C8E737A2";
paths = (
{
closed = 1;
nodes = (
"364 -482 LINE",
"364 475 LINE SMOOTH",
"364 768 OFFCURVE",
"488 928 OFFCURVE",
"715 928 CURVE",
"715 1098 LINE",
"364 1098 OFFCURVE",
"180 886 OFFCURVE",
"180 475 CURVE SMOOTH",
"180 -482 LINE"
);
}
);
width = 735;
}
);
note = g17;
},
{
glyphname = g18;
lastChange = "2016-11-10 14:47:48 +0000";
layers = (
{
layerId = "C9A84539-05D9-48E4-8BC0-D0A9C8E737A2";
paths = (
{
closed = 1;
nodes = (
"760 -361 LINE",
"469 -164 OFFCURVE",
"323 151 OFFCURVE",
"323 550 CURVE SMOOTH",
"323 793 OFFCURVE",
"433 948 OFFCURVE",
"610 948 CURVE SMOOTH",
"753 948 OFFCURVE",
"829 847 OFFCURVE",
"829 660 CURVE SMOOTH",
"829 481 OFFCURVE",
"668 304 OFFCURVE",
"451 225 CURVE",
"519 63 LINE",
"623 103 OFFCURVE",
"712 155 OFFCURVE",
"786 218 CURVE SMOOTH",
"934 345 OFFCURVE",
"1015 505 OFFCURVE",
"1015 662 CURVE SMOOTH",
"1015 953 OFFCURVE",
"867 1118 OFFCURVE",
"599 1118 CURVE SMOOTH",
"311 1118 OFFCURVE",
"130 896 OFFCURVE",
"130 531 CURVE SMOOTH",
"130 92 OFFCURVE",
"330 -306 OFFCURVE",
"661 -502 CURVE"
);
}
);
width = 1115;
}
);
note = g18;
},
{
glyphname = g19;
lastChange = "2016-11-10 14:47:48 +0000";
layers = (
{
layerId = "C9A84539-05D9-48E4-8BC0-D0A9C8E737A2";
paths = (
{
closed = 1;
nodes = (
"488 -502 OFFCURVE",
"551 -494 OFFCURVE",
"630 -462 CURVE",
"590 -306 LINE",
"541 -323 OFFCURVE",
"481 -332 OFFCURVE",
"410 -332 CURVE SMOOTH",
"319 -332 OFFCURVE",
"286 -287 OFFCURVE",
"286 -231 CURVE SMOOTH",
"286 -182 OFFCURVE",
"302 -130 OFFCURVE",
"333 -76 CURVE SMOOTH",
"364 -22 OFFCURVE",
"420 53 OFFCURVE",
"502 150 CURVE SMOOTH",
"642 314 OFFCURVE",
"718 482 OFFCURVE",
"718 655 CURVE SMOOTH",
"718 947 OFFCURVE",
"559 1118 OFFCURVE",
"300 1118 CURVE SMOOTH",
"245 1118 OFFCURVE",
"192 1112 OFFCURVE",
"143 1099 CURVE",
"167 926 LINE",
"206 941 OFFCURVE",
"255 948 OFFCURVE",
"316 948 CURVE SMOOTH",
"460 948 OFFCURVE",
"532 850 OFFCURVE",
"532 655 CURVE SMOOTH",
"532 516 OFFCURVE",
"467 381 OFFCURVE",
"316 201 CURVE SMOOTH",
"167 24 OFFCURVE",
"100 -103 OFFCURVE",
"100 -231 CURVE SMOOTH",
"100 -399 OFFCURVE",
"217 -502 OFFCURVE",
"397 -502 CURVE SMOOTH"
);
}
);
width = 818;
}
);
note = g19;
},
{
glyphname = g20;
lastChange = "2016-11-10 14:47:48 +0000";
layers = (
{
layerId = "C9A84539-05D9-48E4-8BC0-D0A9C8E737A2";
paths = (
{
closed = 1;
nodes = (
"641 -182 OFFCURVE",
"807 289 OFFCURVE",
"807 672 CURVE SMOOTH",
"807 778 OFFCURVE",
"792 864 OFFCURVE",
"762 929 CURVE SMOOTH",
"702 1059 OFFCURVE",
"591 1118 OFFCURVE",
"380 1118 CURVE SMOOTH",
"251 1118 OFFCURVE",
"135 1102 OFFCURVE",
"30 1070 CURVE",
"30 895 LINE",
"114 926 OFFCURVE",
"247 948 OFFCURVE",
"354 948 CURVE SMOOTH",
"434 948 OFFCURVE",
"500 945 OFFCURVE",
"548 909 CURVE SMOOTH",
"595 873 OFFCURVE",
"621 803 OFFCURVE",
"621 670 CURVE SMOOTH",
"621 313 OFFCURVE",
"489 -77 OFFCURVE",
"246 -414 CURVE",
"385 -502 LINE"
);
}
);
width = 907;
}
);
note = g20;
},
{
glyphname = g21;
lastChange = "2016-11-10 14:47:48 +0000";
layers = (
{
layerId = "C9A84539-05D9-48E4-8BC0-D0A9C8E737A2";
paths = (
{
closed = 1;
nodes = (
"455 -413 OFFCURVE",
"516 -319 OFFCURVE",
"569 -218 CURVE",
"649 -151 OFFCURVE",
"754 -118 OFFCURVE",
"885 -118 CURVE",
"953 -121 LINE",
"953 49 LINE",
"878 52 LINE",
"809 52 OFFCURVE",
"743 44 OFFCURVE",
"680 29 CURVE",
"765 256 OFFCURVE",
"807 471 OFFCURVE",
"807 672 CURVE SMOOTH",
"807 778 OFFCURVE",
"792 864 OFFCURVE",
"762 929 CURVE SMOOTH",
"702 1059 OFFCURVE",
"591 1118 OFFCURVE",
"380 1118 CURVE SMOOTH",
"251 1118 OFFCURVE",
"135 1102 OFFCURVE",
"30 1070 CURVE",
"30 895 LINE",
"114 926 OFFCURVE",
"247 948 OFFCURVE",
"354 948 CURVE SMOOTH",
"434 948 OFFCURVE",
"500 945 OFFCURVE",
"548 909 CURVE SMOOTH",
"595 873 OFFCURVE",
"621 803 OFFCURVE",
"621 670 CURVE SMOOTH",
"621 313 OFFCURVE",
"489 -77 OFFCURVE",
"246 -414 CURVE",
"385 -502 LINE"
);
}
);
width = 983;
}
);
note = g21;
},
{
glyphname = g22;
lastChange = "2016-11-10 14:47:48 +0000";
layers = (
{
layerId = "C9A84539-05D9-48E4-8BC0-D0A9C8E737A2";
paths = (
{
closed = 1;
nodes = (
"672 1065 LINE",
"501 1118 LINE",
"20 -449 LINE",
"191 -502 LINE"
);
}
);
width = 692;
}
);
note = g22;
},
{
glyphname = g23;
lastChange = "2016-11-10 14:47:48 +0000";
layers = (
{
layerId = "C9A84539-05D9-48E4-8BC0-D0A9C8E737A2";
paths = (
{
closed = 1;
nodes = (
"596 -502 OFFCURVE",
"701 -317 OFFCURVE",
"701 11 CURVE SMOOTH",
"701 256 OFFCURVE",
"639 483 OFFCURVE",
"516 694 CURVE",
"592 801 OFFCURVE",
"684 896 OFFCURVE",
"793 977 CURVE",
"704 1118 LINE",
"593 1043 OFFCURVE",
"496 953 OFFCURVE",
"411 846 CURVE",
"328 951 OFFCURVE",
"230 1042 OFFCURVE",
"119 1118 CURVE",
"30 977 LINE",
"141 894 OFFCURVE",
"233 799 OFFCURVE",
"307 694 CURVE",
"184 483 OFFCURVE",
"122 256 OFFCURVE",
"122 11 CURVE SMOOTH",
"122 -325 OFFCURVE",
"224 -502 OFFCURVE",
"411 -502 CURVE SMOOTH"
);
},
{
closed = 1;
nodes = (
"378 -331 OFFCURVE",
"353 -302 OFFCURVE",
"335 -244 CURVE SMOOTH",
"317 -187 OFFCURVE",
"308 -101 OFFCURVE",
"308 13 CURVE SMOOTH",
"308 194 OFFCURVE",
"342 360 OFFCURVE",
"411 511 CURVE",
"480 358 OFFCURVE",
"515 192 OFFCURVE",
"515 13 CURVE SMOOTH",
"515 -102 OFFCURVE",
"506 -188 OFFCURVE",
"488 -245 CURVE SMOOTH",
"469 -302 OFFCURVE",
"444 -331 OFFCURVE",
"411 -331 CURVE SMOOTH"
);
}
);
width = 823;
}
);
note = g23;
},
{
glyphname = g24;
lastChange = "2016-11-10 14:47:48 +0000";
layers = (
{
layerId = "C9A84539-05D9-48E4-8BC0-D0A9C8E737A2";
paths = (
{
closed = 1;
nodes = (
"703 -20 OFFCURVE",
"733 -18 OFFCURVE",
"773 -14 CURVE",
"773 156 LINE",
"740 153 LINE",
"684 150 LINE",
"452 150 OFFCURVE",
"301 307 OFFCURVE",
"301 548 CURVE SMOOTH",
"301 792 OFFCURVE",
"451 948 OFFCURVE",
"684 948 CURVE",
"740 945 LINE",
"773 942 LINE",
"773 1112 LINE",
"733 1116 OFFCURVE",
"703 1118 OFFCURVE",
"682 1118 CURVE SMOOTH",
"569 1118 OFFCURVE",
"469 1096 OFFCURVE",
"383 1051 CURVE SMOOTH",
"211 961 OFFCURVE",
"115 783 OFFCURVE",
"115 546 CURVE SMOOTH",
"115 429 OFFCURVE",
"138 327 OFFCURVE",
"185 242 CURVE SMOOTH",
"277 71 OFFCURVE",
"454 -20 OFFCURVE",
"682 -20 CURVE SMOOTH"
);
}
);
width = 873;
}
);
note = g24;
},
{
glyphname = g25;
lastChange = "2016-11-10 14:47:48 +0000";
layers = (
{
layerId = "C9A84539-05D9-48E4-8BC0-D0A9C8E737A2";
paths = (
{
closed = 1;
nodes = (
"332 -20 OFFCURVE",
"496 180 OFFCURVE",
"540 547 CURVE SMOOTH",
"569 787 OFFCURVE",
"683 948 OFFCURVE",
"822 948 CURVE",
"822 1118 LINE",
"574 1118 OFFCURVE",
"412 911 OFFCURVE",
"364 562 CURVE SMOOTH",
"329 310 OFFCURVE",
"220 150 OFFCURVE",
"80 150 CURVE",
"80 -20 LINE"
);
}
);
width = 902;
}
);
note = g25;
},
{
glyphname = g26;
lastChange = "2016-11-10 14:47:48 +0000";
layers = (
{
layerId = "C9A84539-05D9-48E4-8BC0-D0A9C8E737A2";
paths = (
{
closed = 1;
nodes = (
"364 0 LINE",
"364 1098 LINE",
"180 1098 LINE",
"180 0 LINE"
);
}
);
width = 544;
}
);
note = g26;
},
{
glyphname = g27;
lastChange = "2016-11-10 14:47:48 +0000";
layers = (
{
layerId = "C9A84539-05D9-48E4-8BC0-D0A9C8E737A2";
paths = (
{
closed = 1;
nodes = (
"685 150 LINE",
"458 150 OFFCURVE",
"334 310 OFFCURVE",
"334 603 CURVE SMOOTH",
"334 1098 LINE",
"150 1098 LINE",
"150 603 LINE SMOOTH",
"150 192 OFFCURVE",
"334 -20 OFFCURVE",
"685 -20 CURVE"
);
}
);
width = 765;
}
);
note = g27;
},
{
glyphname = g28;
lastChange = "2016-11-10 14:47:48 +0000";
layers = (
{
layerId = "C9A84539-05D9-48E4-8BC0-D0A9C8E737A2";
paths = (
{
closed = 1;
nodes = (
"432 -20 OFFCURVE",
"615 192 OFFCURVE",
"615 603 CURVE SMOOTH",
"615 1098 LINE",
"431 1098 LINE",
"431 603 LINE SMOOTH",
"431 310 OFFCURVE",
"307 150 OFFCURVE",
"80 150 CURVE",
"80 -20 LINE"
);
}
);
width = 765;
}
);
note = g28;
},
{
glyphname = g29;
lastChange = "2016-11-10 14:47:48 +0000";
layers = (
{
layerId = "C9A84539-05D9-48E4-8BC0-D0A9C8E737A2";
paths = (
{
closed = 1;
nodes = (
"334 0 LINE",
"334 495 LINE SMOOTH",
"334 788 OFFCURVE",
"458 948 OFFCURVE",
"685 948 CURVE",
"685 1118 LINE",
"334 1118 OFFCURVE",
"150 906 OFFCURVE",
"150 495 CURVE SMOOTH",
"150 0 LINE"
);
}
);
width = 765;
}
);
note = g29;
},
{
glyphname = g30;
lastChange = "2016-11-10 14:47:48 +0000";
layers = (
{
layerId = "C9A84539-05D9-48E4-8BC0-D0A9C8E737A2";
paths = (
{
closed = 1;
nodes = (
"615 0 LINE",
"615 495 LINE SMOOTH",
"615 906 OFFCURVE",
"431 1118 OFFCURVE",
"80 1118 CURVE",
"80 948 LINE",
"307 948 OFFCURVE",
"431 788 OFFCURVE",
"431 495 CURVE SMOOTH",
"431 0 LINE"
);
}
);
width = 765;
}
);
note = g30;
},
{
glyphname = g31;
lastChange = "2016-11-10 14:47:48 +0000";
layers = (
{
layerId = "C9A84539-05D9-48E4-8BC0-D0A9C8E737A2";
paths = (
{
closed = 1;
nodes = (
"608 0 LINE",
"1030 1053 LINE",
"854 1118 LINE",
"525 274 LINE",
"196 1118 LINE",
"20 1053 LINE",
"441 0 LINE"
);
}
);
width = 1050;
}
);
note = g31;
},
{
glyphname = g32;
lastChange = "2016-11-10 14:47:48 +0000";
layers = (
{
layerId = "C9A84539-05D9-48E4-8BC0-D0A9C8E737A2";
paths = (
{
closed = 1;
nodes = (
"616 150 LINE",
"577 150 OFFCURVE",
"547 154 OFFCURVE",
"526 162 CURVE SMOOTH",
"482 178 OFFCURVE",
"465 198 OFFCURVE",
"465 273 CURVE SMOOTH",
"465 311 LINE SMOOTH",
"465 472 OFFCURVE",
"408 551 OFFCURVE",
"299 580 CURVE",
"462 681 OFFCURVE",
"578 875 OFFCURVE",
"603 1098 CURVE",
"419 1098 LINE",
"379 878 OFFCURVE",
"215 671 OFFCURVE",
"20 610 CURVE",
"20 440 LINE",
"130 440 LINE SMOOTH",
"169 440 OFFCURVE",
"199 436 OFFCURVE",
"220 427 CURVE SMOOTH",
"263 410 OFFCURVE",
"281 387 OFFCURVE",
"281 311 CURVE SMOOTH",
"281 273 LINE SMOOTH",
"281 196 OFFCURVE",
"292 138 OFFCURVE",
"315 100 CURVE SMOOTH",
"360 24 OFFCURVE",
"453 -20 OFFCURVE",
"616 -20 CURVE"
);
}
);
width = 696;
}
);
note = g32;
},
{
glyphname = g33;
lastChange = "2016-11-10 14:47:48 +0000";
layers = (
{
layerId = "C9A84539-05D9-48E4-8BC0-D0A9C8E737A2";
paths = (
{
closed = 1;
nodes = (
"565 -20 OFFCURVE",
"800 161 OFFCURVE",
"820 445 CURVE",
"820 495 LINE",
"779 492 OFFCURVE",
"747 490 OFFCURVE",
"725 490 CURVE SMOOTH",
"580 490 OFFCURVE",
"486 581 OFFCURVE",
"486 716 CURVE SMOOTH",
"486 860 OFFCURVE",
"581 948 OFFCURVE",
"737 948 CURVE SMOOTH",
"802 948 OFFCURVE",
"875 941 OFFCURVE",
"955 928 CURVE",
"956 1099 LINE",
"889 1112 OFFCURVE",
"816 1118 OFFCURVE",
"735 1118 CURVE SMOOTH",
"479 1118 OFFCURVE",
"300 957 OFFCURVE",
"300 716 CURVE SMOOTH",
"300 529 OFFCURVE",
"421 382 OFFCURVE",
"602 335 CURVE",
"538 219 OFFCURVE",
"388 150 OFFCURVE",
"215 150 CURVE SMOOTH",
"176 150 OFFCURVE",
"132 154 OFFCURVE",
"84 162 CURVE",
"60 -6 LINE",
"110 -15 OFFCURVE",
"164 -20 OFFCURVE",
"222 -20 CURVE SMOOTH"
);
}
);
width = 1036;
}
);
note = g33;
},
{
glyphname = g34;
lastChange = "2016-11-10 14:47:48 +0000";
layers = (
{
layerId = "C9A84539-05D9-48E4-8BC0-D0A9C8E737A2";
paths = (
{
closed = 1;
nodes = (
"306 -20 OFFCURVE",
"406 3 OFFCURVE",
"492 48 CURVE SMOOTH",
"663 138 OFFCURVE",
"758 311 OFFCURVE",
"758 546 CURVE SMOOTH",
"758 665 OFFCURVE",
"735 767 OFFCURVE",
"688 854 CURVE SMOOTH",
"595 1026 OFFCURVE",
"419 1118 OFFCURVE",
"191 1118 CURVE SMOOTH",
"170 1118 OFFCURVE",
"140 1116 OFFCURVE",
"100 1112 CURVE",
"100 942 LINE",
"133 945 LINE",
"189 948 LINE",
"422 948 OFFCURVE",
"572 792 OFFCURVE",
"572 548 CURVE SMOOTH",
"572 467 OFFCURVE",
"556 396 OFFCURVE",
"524 336 CURVE SMOOTH",
"459 215 OFFCURVE",
"337 150 OFFCURVE",
"189 150 CURVE",
"133 153 LINE",
"100 156 LINE",
"100 -14 LINE",
"140 -18 OFFCURVE",
"170 -20 OFFCURVE",
"191 -20 CURVE SMOOTH"
);
}
);
width = 873;
}
);
note = g34;
},
{
glyphname = g35;
lastChange = "2016-11-10 14:47:48 +0000";
layers = (
{
layerId = "C9A84539-05D9-48E4-8BC0-D0A9C8E737A2";
paths = (
{
closed = 1;
nodes = (
"822 150 LINE",
"681 150 OFFCURVE",
"571 311 OFFCURVE",
"538 562 CURVE SMOOTH",
"490 911 OFFCURVE",
"328 1118 OFFCURVE",
"80 1118 CURVE",
"80 948 LINE",
"220 948 OFFCURVE",
"333 786 OFFCURVE",
"362 547 CURVE SMOOTH",
"407 180 OFFCURVE",
"570 -20 OFFCURVE",
"822 -20 CURVE"
);
}
);
width = 902;
}
);
note = g35;
},
{
glyphname = g36;
lastChange = "2016-11-10 14:47:48 +0000";
layers = (
{
layerId = "C9A84539-05D9-48E4-8BC0-D0A9C8E737A2";
paths = (
{
closed = 1;
nodes = (
"709 0 LINE",
"709 758 LINE",
"545 878 LINE",
"304 622 LINE",
"304 1098 LINE",
"120 1098 LINE",
"120 484 LINE",
"282 364 LINE",
"525 621 LINE",
"525 0 LINE"
);
}
);
width = 829;
}
);
note = g36;
},
{
glyphname = g37;
lastChange = "2016-11-10 14:47:48 +0000";
layers = (
{
layerId = "C9A84539-05D9-48E4-8BC0-D0A9C8E737A2";
paths = (
{
closed = 1;
nodes = (
"765 153 LINE",
"670 156 OFFCURVE",
"588 185 OFFCURVE",
"521 241 CURVE SMOOTH",
"386 352 OFFCURVE",
"314 580 OFFCURVE",
"314 903 CURVE SMOOTH",
"314 934 LINE",
"775 934 LINE",
"775 1098 LINE",
"130 1098 LINE",
"130 903 LINE SMOOTH",
"130 710 OFFCURVE",
"156 543 OFFCURVE",
"208 401 CURVE SMOOTH",
"312 116 OFFCURVE",
"502 -20 OFFCURVE",
"765 -20 CURVE"
);
}
);
width = 875;
}
);
note = g37;
},
{
glyphname = g38;
lastChange = "2016-11-10 14:47:48 +0000";
layers = (
{
layerId = "C9A84539-05D9-48E4-8BC0-D0A9C8E737A2";
paths = (
{
closed = 1;
nodes = (
"242 -20 OFFCURVE",
"355 15 OFFCURVE",
"449 84 CURVE SMOOTH",
"637 223 OFFCURVE",
"745 519 OFFCURVE",
"745 903 CURVE SMOOTH",
"745 1098 LINE",
"100 1098 LINE",
"100 934 LINE",
"561 934 LINE",
"561 903 LINE SMOOTH",
"561 416 OFFCURVE",
"403 162 OFFCURVE",
"110 153 CURVE",
"110 -20 LINE"
);
}
);
width = 875;
}
);
note = g38;
},
{
glyphname = g39;
lastChange = "2016-11-10 14:47:48 +0000";
layers = (
{
layerId = "C9A84539-05D9-48E4-8BC0-D0A9C8E737A2";
paths = (
{
closed = 1;
nodes = (
"388 0 LINE",
"388 397 OFFCURVE",
"557 770 OFFCURVE",
"826 939 CURVE",
"826 1098 LINE",
"50 1098 LINE",
"50 934 LINE",
"590 934 LINE",
"357 710 OFFCURVE",
"204 331 OFFCURVE",
"204 0 CURVE"
);
}
);
width = 876;
}
);
note = g39;
},
{
glyphname = g40;
lastChange = "2016-11-10 14:47:48 +0000";
layers = (
{
layerId = "C9A84539-05D9-48E4-8BC0-D0A9C8E737A2";
paths = (
{
closed = 1;
nodes = (
"697 -20 OFFCURVE",
"780 3 OFFCURVE",
"852 48 CURVE SMOOTH",
"995 139 OFFCURVE",
"1078 317 OFFCURVE",
"1078 546 CURVE SMOOTH",
"1078 657 OFFCURVE",
"1059 756 OFFCURVE",
"1022 843 CURVE SMOOTH",
"946 1017 OFFCURVE",
"799 1118 OFFCURVE",
"606 1118 CURVE SMOOTH",
"509 1118 OFFCURVE",
"425 1094 OFFCURVE",
"353 1046 CURVE SMOOTH",
"208 950 OFFCURVE",
"130 769 OFFCURVE",
"130 546 CURVE SMOOTH",
"130 431 OFFCURVE",
"150 330 OFFCURVE",
"189 245 CURVE SMOOTH",
"268 73 OFFCURVE",
"415 -20 OFFCURVE",
"602 -20 CURVE SMOOTH"
);
},
{
closed = 1;
nodes = (
"548 150 OFFCURVE",
"498 166 OFFCURVE",
"455 198 CURVE SMOOTH",
"368 262 OFFCURVE",
"316 388 OFFCURVE",
"316 548 CURVE SMOOTH",
"316 788 OFFCURVE",
"433 948 OFFCURVE",
"613 948 CURVE SMOOTH",
"665 948 OFFCURVE",
"713 932 OFFCURVE",
"756 899 CURVE SMOOTH",
"842 833 OFFCURVE",
"892 705 OFFCURVE",
"892 548 CURVE SMOOTH",
"892 469 OFFCURVE",
"880 399 OFFCURVE",
"855 338 CURVE SMOOTH",
"806 217 OFFCURVE",
"715 150 OFFCURVE",
"604 150 CURVE SMOOTH"
);
}
);
width = 1208;
}
);
note = g40;
},
{
glyphname = g41;
lastChange = "2016-11-10 14:47:48 +0000";
layers = (
{
layerId = "C9A84539-05D9-48E4-8BC0-D0A9C8E737A2";
paths = (
{
closed = 1;
nodes = (
"525 824 LINE",
"854 -20 LINE",
"1030 45 LINE",
"608 1098 LINE",
"441 1098 LINE",
"20 45 LINE",
"196 -20 LINE"
);
}
);
width = 1050;
}
);
note = g41;
},
{
glyphname = g42;
lastChange = "2016-11-10 14:47:48 +0000";
layers = (
{
layerId = "C9A84539-05D9-48E4-8BC0-D0A9C8E737A2";
paths = (
{
closed = 1;
nodes = (
"277 0 LINE",
"316 219 OFFCURVE",
"481 428 OFFCURVE",
"676 488 CURVE",
"676 658 LINE",
"566 658 LINE SMOOTH",
"529 658 OFFCURVE",
"499 662 OFFCURVE",
"477 671 CURVE",
"433 687 OFFCURVE",
"415 711 OFFCURVE",
"415 787 CURVE SMOOTH",
"415 825 LINE SMOOTH",
"415 902 OFFCURVE",
"404 960 OFFCURVE",
"381 998 CURVE SMOOTH",
"336 1074 OFFCURVE",
"243 1118 OFFCURVE",
"80 1118 CURVE",
"80 948 LINE",
"120 948 OFFCURVE",
"151 944 OFFCURVE",
"172 936 CURVE SMOOTH",
"214 920 OFFCURVE",
"231 900 OFFCURVE",
"231 825 CURVE SMOOTH",
"231 787 LINE SMOOTH",
"231 626 OFFCURVE",
"288 547 OFFCURVE",
"397 518 CURVE",
"232 415 OFFCURVE",
"114 212 OFFCURVE",
"93 0 CURVE"
);
}
);
width = 696;
}
);
note = g42;
},
{
glyphname = g43;
lastChange = "2016-11-10 14:47:48 +0000";
layers = (
{
layerId = "C9A84539-05D9-48E4-8BC0-D0A9C8E737A2";
paths = (
{
closed = 1;
nodes = (
"872 -20 OFFCURVE",
"926 -15 OFFCURVE",
"976 -6 CURVE",
"952 162 LINE",
"904 154 OFFCURVE",
"860 150 OFFCURVE",
"821 150 CURVE SMOOTH",
"646 150 OFFCURVE",
"497 219 OFFCURVE",
"433 335 CURVE",
"617 383 OFFCURVE",
"736 532 OFFCURVE",
"736 716 CURVE SMOOTH",
"736 956 OFFCURVE",
"558 1118 OFFCURVE",
"301 1118 CURVE SMOOTH",
"220 1118 OFFCURVE",
"147 1112 OFFCURVE",
"80 1099 CURVE",
"81 928 LINE",
"161 941 OFFCURVE",
"234 948 OFFCURVE",
"299 948 CURVE SMOOTH",
"456 948 OFFCURVE",
"550 859 OFFCURVE",
"550 716 CURVE SMOOTH",
"550 581 OFFCURVE",
"456 490 OFFCURVE",
"311 490 CURVE SMOOTH",
"289 490 OFFCURVE",
"257 492 OFFCURVE",
"216 495 CURVE",
"216 445 LINE",
"236 161 OFFCURVE",
"473 -20 OFFCURVE",
"814 -20 CURVE SMOOTH"
);
}
);
width = 1036;
}
);
note = g43;
},
{
glyphname = g44;
lastChange = "2016-11-10 14:47:48 +0000";
layers = (
{
layerId = "C9A84539-05D9-48E4-8BC0-D0A9C8E737A2";
paths = (
{
closed = 1;
nodes = (
"417 -20 OFFCURVE",
"627 141 OFFCURVE",
"648 404 CURVE",
"648 445 LINE",
"607 442 OFFCURVE",
"575 440 OFFCURVE",
"553 440 CURVE SMOOTH",
"408 440 OFFCURVE",
"314 531 OFFCURVE",
"314 666 CURVE SMOOTH",
"314 846 OFFCURVE",
"445 948 OFFCURVE",
"669 948 CURVE SMOOTH",
"940 948 OFFCURVE",
"1060 813 OFFCURVE",
"1060 548 CURVE SMOOTH",
"1060 316 OFFCURVE",
"947 175 OFFCURVE",
"726 147 CURVE",
"726 -20 LINE",
"825 -18 OFFCURVE",
"914 7 OFFCURVE",
"994 54 CURVE SMOOTH",
"1153 149 OFFCURVE",
"1246 325 OFFCURVE",
"1246 546 CURVE SMOOTH",
"1246 909 OFFCURVE",
"1033 1118 OFFCURVE",
"664 1118 CURVE SMOOTH",
"559 1118 OFFCURVE",
"466 1099 OFFCURVE",
"385 1060 CURVE SMOOTH",
"221 983 OFFCURVE",
"128 837 OFFCURVE",
"128 666 CURVE SMOOTH",
"128 485 OFFCURVE",
"242 338 OFFCURVE",
"425 287 CURVE",
"368 194 OFFCURVE",
"268 150 OFFCURVE",
"100 150 CURVE",
"100 -20 LINE"
);
}
);
width = 1361;
}
);
note = g44;
},
{
glyphname = g45;
lastChange = "2016-11-10 14:47:48 +0000";
layers = (
{
layerId = "C9A84539-05D9-48E4-8BC0-D0A9C8E737A2";
paths = (
{
closed = 1;
nodes = (
"815 -20 OFFCURVE",
"914 4 OFFCURVE",
"998 51 CURVE SMOOTH",
"1166 145 OFFCURVE",
"1257 324 OFFCURVE",
"1257 552 CURVE SMOOTH",
"1257 884 OFFCURVE",
"1053 1103 OFFCURVE",
"737 1118 CURVE",
"737 948 LINE",
"944 935 OFFCURVE",
"1071 786 OFFCURVE",
"1071 550 CURVE SMOOTH",
"1071 293 OFFCURVE",
"944 150 OFFCURVE",
"703 150 CURVE SMOOTH",
"508 150 OFFCURVE",
"382 239 OFFCURVE",
"337 418 CURVE",
"522 447 OFFCURVE",
"631 573 OFFCURVE",
"631 756 CURVE SMOOTH",
"631 977 OFFCURVE",
"472 1118 OFFCURVE",
"216 1118 CURVE SMOOTH",
"165 1118 OFFCURVE",
"126 1117 OFFCURVE",
"100 1115 CURVE",
"100 944 LINE",
"127 947 OFFCURVE",
"165 948 OFFCURVE",
"214 948 CURVE SMOOTH",
"368 948 OFFCURVE",
"445 884 OFFCURVE",
"445 756 CURVE SMOOTH",
"445 627 OFFCURVE",
"375 570 OFFCURVE",
"226 570 CURVE SMOOTH",
"205 570 OFFCURVE",
"173 572 OFFCURVE",
"131 575 CURVE",
"131 525 LINE SMOOTH",
"131 417 OFFCURVE",
"154 322 OFFCURVE",
"199 240 CURVE SMOOTH",
"289 76 OFFCURVE",
"461 -20 OFFCURVE",
"700 -20 CURVE SMOOTH"
);
}
);
width = 1372;
}
);
note = g45;
},
{
glyphname = g46;
lastChange = "2016-11-10 14:47:48 +0000";
layers = (
{
layerId = "C9A84539-05D9-48E4-8BC0-D0A9C8E737A2";
paths = (
{
closed = 1;
nodes = (
"469 151 LINE",
"352 162 OFFCURVE",
"286 217 OFFCURVE",
"286 302 CURVE SMOOTH",
"286 398 OFFCURVE",
"344 455 OFFCURVE",
"432 466 CURVE",
"455 435 OFFCURVE",
"491 402 OFFCURVE",
"538 367 CURVE",
"648 485 LINE",
"625 509 LINE",
"582 550 OFFCURVE",
"553 614 OFFCURVE",
"553 686 CURVE SMOOTH",
"553 854 OFFCURVE",
"668 948 OFFCURVE",
"871 948 CURVE SMOOTH",
"1075 948 OFFCURVE",
"1200 804 OFFCURVE",
"1200 568 CURVE SMOOTH",
"1200 323 OFFCURVE",
"1078 175 OFFCURVE",
"866 147 CURVE",
"866 -20 LINE",
"968 -14 OFFCURVE",
"1059 14 OFFCURVE",
"1139 64 CURVE SMOOTH",
"1298 163 OFFCURVE",
"1386 342 OFFCURVE",
"1386 566 CURVE SMOOTH",
"1386 903 OFFCURVE",
"1184 1118 OFFCURVE",
"871 1118 CURVE SMOOTH",
"771 1118 OFFCURVE",
"683 1100 OFFCURVE",
"606 1063 CURVE SMOOTH",
"452 990 OFFCURVE",
"367 851 OFFCURVE",
"367 682 CURVE",
"369 628 LINE",
"204 595 OFFCURVE",
"100 478 OFFCURVE",
"100 302 CURVE SMOOTH",
"100 241 OFFCURVE",
"116 185 OFFCURVE",
"149 136 CURVE SMOOTH",
"214 37 OFFCURVE",
"336 -20 OFFCURVE",
"469 -20 CURVE"
);
}
);
width = 1501;
}
);
note = g46;
},
{
glyphname = g47;
lastChange = "2016-11-10 14:47:48 +0000";
layers = (
{
layerId = "C9A84539-05D9-48E4-8BC0-D0A9C8E737A2";
paths = (
{
closed = 1;
nodes = (
"1183 -20 OFFCURVE",
"1386 195 OFFCURVE",
"1386 532 CURVE SMOOTH",
"1386 872 OFFCURVE",
"1182 1098 OFFCURVE",
"866 1118 CURVE",
"866 951 LINE",
"1078 924 OFFCURVE",
"1200 774 OFFCURVE",
"1200 530 CURVE SMOOTH",
"1200 294 OFFCURVE",
"1075 150 OFFCURVE",
"871 150 CURVE SMOOTH",
"667 150 OFFCURVE",
"553 245 OFFCURVE",
"553 412 CURVE SMOOTH",
"553 484 OFFCURVE",
"581 547 OFFCURVE",
"625 590 CURVE SMOOTH",
"648 613 LINE",
"538 731 LINE",
"493 698 OFFCURVE",
"457 665 OFFCURVE",
"432 632 CURVE",
"344 643 OFFCURVE",
"286 700 OFFCURVE",
"286 796 CURVE SMOOTH",
"286 881 OFFCURVE",
"352 936 OFFCURVE",
"469 947 CURVE",
"469 1118 LINE",
"402 1118 OFFCURVE",
"340 1104 OFFCURVE",
"283 1077 CURVE SMOOTH",
"170 1022 OFFCURVE",
"100 920 OFFCURVE",
"100 796 CURVE SMOOTH",
"100 621 OFFCURVE",
"204 501 OFFCURVE",
"369 469 CURVE",
"367 416 LINE",
"367 331 OFFCURVE",
"387 256 OFFCURVE",
"428 190 CURVE SMOOTH",
"509 58 OFFCURVE",
"668 -20 OFFCURVE",
"871 -20 CURVE SMOOTH"
);
}
);
width = 1501;
}
);
note = g47;
},
{
glyphname = g48;
lastChange = "2016-11-10 14:47:48 +0000";
layers = (
{
layerId = "C9A84539-05D9-48E4-8BC0-D0A9C8E737A2";
paths = (
{
closed = 1;
nodes = (
"856 -20 OFFCURVE",
"955 6 OFFCURVE",
"1042 57 CURVE SMOOTH",
"1216 160 OFFCURVE",
"1326 366 OFFCURVE",
"1326 589 CURVE SMOOTH",
"1326 932 OFFCURVE",
"1147 1118 OFFCURVE",
"832 1118 CURVE SMOOTH",
"745 1118 OFFCURVE",
"667 1103 OFFCURVE",
"596 1073 CURVE SMOOTH",
"455 1013 OFFCURVE",
"347 906 OFFCURVE",
"256 729 CURVE SMOOTH",
"165 552 OFFCURVE",
"109 335 OFFCURVE",
"80 0 CURVE",
"264 0 LINE",
"284 223 OFFCURVE",
"320 403 OFFCURVE",
"371 541 CURVE SMOOTH",
"474 816 OFFCURVE",
"632 948 OFFCURVE",
"843 948 CURVE SMOOTH",
"1023 948 OFFCURVE",
"1140 808 OFFCURVE",
"1140 589 CURVE SMOOTH",
"1140 511 OFFCURVE",
"1123 438 OFFCURVE",
"1090 370 CURVE SMOOTH",
"1022 234 OFFCURVE",
"896 150 OFFCURVE",
"744 150 CURVE SMOOTH",
"711 150 OFFCURVE",
"677 156 OFFCURVE",
"642 167 CURVE",
"593 2 LINE",
"645 -13 OFFCURVE",
"696 -20 OFFCURVE",
"747 -20 CURVE SMOOTH"
);
}
);
width = 1441;
}
);
note = g48;
},
{
glyphname = g49;
lastChange = "2016-11-10 14:47:48 +0000";
layers = (
{
layerId = "C9A84539-05D9-48E4-8BC0-D0A9C8E737A2";
paths = (
{
closed = 1;
nodes = (
"926 -20 OFFCURVE",
"1025 6 OFFCURVE",
"1112 57 CURVE SMOOTH",
"1286 160 OFFCURVE",
"1396 366 OFFCURVE",
"1396 589 CURVE SMOOTH",
"1396 926 OFFCURVE",
"1225 1118 OFFCURVE",
"902 1118 CURVE SMOOTH",
"648 1118 OFFCURVE",
"459 988 OFFCURVE",
"334 729 CURVE",
"334 1098 LINE",
"150 1098 LINE",
"150 0 LINE",
"334 0 LINE",
"334 219 OFFCURVE",
"395 503 OFFCURVE",
"492 677 CURVE SMOOTH",
"588 851 OFFCURVE",
"726 948 OFFCURVE",
"898 948 CURVE SMOOTH",
"1099 948 OFFCURVE",
"1210 818 OFFCURVE",
"1210 579 CURVE SMOOTH",
"1210 502 OFFCURVE",
"1193 430 OFFCURVE",
"1160 363 CURVE SMOOTH",
"1093 230 OFFCURVE",
"967 150 OFFCURVE",
"814 150 CURVE SMOOTH",
"781 150 OFFCURVE",
"747 156 OFFCURVE",
"712 167 CURVE",
"663 2 LINE",
"715 -13 OFFCURVE",
"766 -20 OFFCURVE",
"817 -20 CURVE SMOOTH"
);
}
);
width = 1511;
}
);
note = g49;
},
{
glyphname = g50;
lastChange = "2016-11-10 14:47:48 +0000";
layers = (
{
layerId = "C9A84539-05D9-48E4-8BC0-D0A9C8E737A2";
paths = (
{
closed = 1;
nodes = (
"334 0 LINE",
"334 182 LINE",
"346 330 OFFCURVE",
"422 543 OFFCURVE",
"519 684 CURVE SMOOTH",
"616 825 OFFCURVE",
"741 919 OFFCURVE",
"882 946 CURVE",
"882 1118 LINE",
"808 1117 OFFCURVE",
"736 1099 OFFCURVE",
"666 1062 CURVE SMOOTH",
"525 989 OFFCURVE",
"394 835 OFFCURVE",
"334 684 CURVE",
"334 1098 LINE",
"150 1098 LINE",
"150 0 LINE"
);
}
);
width = 922;
}
);
note = g50;
},
{
glyphname = g51;
lastChange = "2016-11-10 14:47:48 +0000";
layers = (
{
layerId = "C9A84539-05D9-48E4-8BC0-D0A9C8E737A2";
paths = (
{
closed = 1;
nodes = (
"1187 35 LINE",
"879 1098 LINE",
"712 1098 LINE",
"437 313 LINE",
"172 1600 LINE",
"0 1563 LINE",
"327 0 LINE",
"508 0 LINE",
"796 824 LINE",
"1024 -20 LINE"
);
}
